<svg xmlns="http://www.w3.org/2000/svg" viewBox="70 1440 3030 380" role="img" aria-label="OTW Studios — Optimise the Workflow">
  <g transform="scale(8.571428571428571) translate(10, 10)">
    <g transform="matrix(1.823511416980051,0,0,1.823511416980051,-3.0438773242663375,144.54523572503848)" fill="#444444"><path d="M16.60458 9.64948 c0.917754 0.909902 0.910196 2.22604 0.898554 4.21824 c-0.000918 0.14832 -0.001699 0.301992 -0.002344 0.461172 c-0.004453 1.182344 -0.007598 2.03654 -0.131719 2.75694 c-0.105684 0.6142 -0.349746 1.499532 -1.243574 2.09542 c-1.132128 0.754668 -2.82312 0.77168 -6.52816 0.808692 c-0.578614 0.005762 -1.112246 0.010078 -1.60455 0.010078 c-2.93534 0 -4.41104 -0.155371 -5.35376 -1.092226 c-0.981972 -0.975704 -0.976484 -2.41258 -0.968378 -4.58764 c0.009023 -2.42682 0.014512 -3.89168 1.244726 -4.80108 c1.061368 -0.784492 2.60274 -0.805156 5.97974 -0.850546 l0.673964 -0.009277 c4.20884 -0.060156 5.95086 -0.085137 7.0355 0.990234 z M15.1714 13.85424 c0.006543 -1.144804 0.013457 -2.32876 -0.208632 -2.54874 c-0.275566 -0.273222 -1.512324 -0.336386 -3.15846 -0.336386 c-0.677364 0 -1.42418 0.010723 -2.20186 0.021836 l-0.676054 0.009277 c-2.41938 0.032441 -4.1674 0.055977 -4.6249 0.394062 c-0.28879 0.213458 -0.293496 1.474414 -0.298984 2.93458 c-0.005098 1.355898 -0.009941 2.6366 0.280156 2.92486 c0.45541 0.45254 2.91388 0.427812 5.2914 0.404278 c2.73026 -0.027207 4.70284 -0.046953 5.25804 -0.41709 c0.326856 -0.21789 0.331036 -1.351582 0.336914 -2.9208 c0.000527 -0.160742 0.001445 -0.315996 0.002363 -0.465878 z M20.849238 8.47528 l15.9375 0 l0 2.3477 l-6.79538 0 l0 9.09322 l-2.34756 0 l0 -9.09322 l-6.79458 0 l0 -2.3477 z M61.3802 8.74264 l2.90564 0 l-9.01698 12.02334 l-3.52116 -4.69434 l-3.52062 4.69434 l-9.0179 -12.02334 l2.90578 0 l6.1121 8.14918 l2.0678 -2.75732 l-4.04404 -5.39186 l2.90578 0 l2.5911 3.4547 l2.59084 -3.4547 l2.9055 0 l-4.04354 5.39172 l2.0682 2.75746 z M78.37794 11.0045 c-0.218164 0.120586 -0.441172 0.323066 -0.441172 0.909668 c0 0.457246 0.147793 0.707188 0.527344 0.891074 c0.383868 0.185977 0.811954 0.19957 0.833536 0.200098 l8.53332 0.033359 c1.482774 0 3.69562 0.9158 3.69562 3.43876 s-2.05642 3.43876 -3.43876 3.43876 l-12.49864 0 l0 -2.3477 l12.4883 0 c0.102402 -0.003535 0.408184 -0.042109 0.660214 -0.181523 c0.218282 -0.120723 0.44129 -0.323184 0.44129 -0.909648 c0 -0.457246 -0.147793 -0.707188 -0.527344 -0.891074 c-0.382696 -0.185469 -0.810372 -0.199473 -0.834296 -0.200118 l-8.52782 -0.03793 l0 0.00457 c-1.48748 0 -3.70034 -0.9158 -3.70034 -3.43876 s2.05642 -3.43876 3.43876 -3.43876 l12.49864 0 l0 2.3477 l-12.48816 0 c-0.102285 0.003535 -0.40834 0.042109 -0.660508 0.181523 z M94.869238 8.47528 l15.9375 0 l0 2.3477 l-6.79538 0 l0 9.09322 l-2.34756 0 l0 -9.09322 l-6.79458 0 l0 -2.3477 z M130.10674 8.48678 l0.041758 5.69998 c0.017129 1.26121 -0.491778 2.48554 -1.433204 3.44792 c-0.998204 1.020292 -2.94084 2.24202 -6.52674 2.26844 c-0.034785 0.000254 -0.069707 0.000391 -0.104238 0.000391 c-2.71458 0 -4.98156 -0.779766 -6.39254 -2.20094 c-0.969942 -0.977012 -1.495332 -2.22174 -1.480546 -3.50636 l-0.041992 -5.69188 l2.34756 -0.017402 l0.042246 5.7166 l-0.000137 0.012813 c-0.009687 0.662324 0.26668 1.295742 0.799004 1.831992 c0.980136 0.987344 2.68854 1.521484 4.8135 1.506972 c2.1676 -0.015957 3.8956 -0.570782 4.86594 -1.562558 c0.50916 -0.52041 0.77336 -1.13461 0.763946 -1.776524 l0 -0.008379 l-0.042109 -5.70366 z M147.99312 10.82728 c0.955684 0.969414 1.471796 2.2114 1.45336 3.49708 c-0.022891 1.591464 -0.78998 3.04364 -2.16002 4.08918 c-1.42705 1.088964 -3.43546 1.66457 -5.80814 1.66457 c-4.52888 0 -6.80792 -0.066699 -6.83042 -0.067344 l-1.138672 -0.034141 l0 -11.37292 l7.96908 0 c3.57282 0 5.51478 1.20916 6.5148 2.22358 z M141.47846 17.7303 c3.84866 0 5.59616 -1.727618 5.62088 -3.43966 c0.009414 -0.66168 -0.259628 -1.289336 -0.77795 -1.815254 c-0.968906 -0.98289 -2.6888 -1.524102 -4.84292 -1.524102 l-5.62138 0 l0 6.73704 c1.09002 0.018965 2.96306 0.041992 5.62138 0.041992 z M155.13376 20.024609 l-2.32456 0 l0 -11.29536 l2.32456 0 l0 11.29536 z M173.42458 9.64948 c0.917754 0.909902 0.910196 2.22604 0.898554 4.21824 c-0.000918 0.14832 -0.001699 0.301992 -0.002344 0.461172 c-0.004453 1.182344 -0.007598 2.03654 -0.131719 2.75694 c-0.105684 0.6142 -0.349746 1.499532 -1.243574 2.09542 c-1.132128 0.754668 -2.82312 0.77168 -6.52816 0.808692 c-0.578614 0.005762 -1.112246 0.010078 -1.60455 0.010078 c-2.93534 0 -4.41104 -0.155371 -5.35376 -1.092226 c-0.981972 -0.975704 -0.976484 -2.41258 -0.968378 -4.58764 c0.009023 -2.42682 0.014512 -3.89168 1.244726 -4.80108 c1.061368 -0.784492 2.60274 -0.805156 5.97974 -0.850546 l0.673964 -0.009277 c4.20884 -0.060156 5.95086 -0.085137 7.0355 0.990234 z M171.9914 13.85424 c0.006543 -1.144804 0.013457 -2.32876 -0.208632 -2.54874 c-0.275566 -0.273222 -1.512324 -0.336386 -3.15846 -0.336386 c-0.677364 0 -1.42418 0.010723 -2.20186 0.021836 l-0.676054 0.009277 c-2.41938 0.032441 -4.1674 0.055977 -4.6249 0.394062 c-0.28879 0.213458 -0.293496 1.474414 -0.298984 2.93458 c-0.005098 1.355898 -0.009941 2.6366 0.280156 2.92486 c0.45541 0.45254 2.91388 0.427812 5.2914 0.404278 c2.73026 -0.027207 4.70284 -0.046953 5.25804 -0.41709 c0.326856 -0.21789 0.331036 -1.351582 0.336914 -2.9208 c0.000527 -0.160742 0.001445 -0.315996 0.002363 -0.465878 z M180.45794 11.0045 c-0.218164 0.120586 -0.441172 0.323066 -0.441172 0.909668 c0 0.457246 0.147793 0.707188 0.527344 0.891074 c0.383868 0.185977 0.811954 0.19957 0.833536 0.200098 l8.53332 0.033359 c1.482774 0 3.69562 0.9158 3.69562 3.43876 s-2.05642 3.43876 -3.43876 3.43876 l-12.49864 0 l0 -2.3477 l12.4883 0 c0.102402 -0.003535 0.408184 -0.042109 0.660214 -0.181523 c0.218282 -0.120723 0.44129 -0.323184 0.44129 -0.909648 c0 -0.457246 -0.147793 -0.707188 -0.527344 -0.891074 c-0.382696 -0.185469 -0.810372 -0.199473 -0.834296 -0.200118 l-8.52782 -0.03793 l0 0.00457 c-1.48748 0 -3.70034 -0.9158 -3.70034 -3.43876 s2.05642 -3.43876 3.43876 -3.43876 l12.49864 0 l0 2.3477 l-12.48816 0 c-0.102285 0.003535 -0.40834 0.042109 -0.660508 0.181523 z"/></g>
    <g transform="matrix(0.6397952441001722,0,0,0.6397952441001722,34.424184524372365,188.0460664165235)" fill="#f95102"><path d="M8.2 6.18 c4.54 0 7.36 3.32 7.36 6.98 c0 3.92 -3 7.02 -7.46 7.02 c-4.28 0 -7.2 -3.16 -7.2 -6.96 c0 -3.62 2.64 -7.04 7.3 -7.04 z M8.28 8.02 c-3.82 0 -5.36 2.92 -5.36 5.2 c0 3.1 2.44 5.14 5.3 5.14 c1.46 0 3.04 -0.6 3.98 -1.62 c0.86 -0.94 1.36 -2.42 1.36 -3.6 c0 -2.26 -1.72 -5.12 -5.28 -5.12 z M27.232 6.36 l3.52 0 c1.62 0 2.88 0 4.02 1.16 c0.6 0.6 1.06 1.46 1.06 2.7 c0 0.68 -0.12 1.78 -1.14 2.76 c-0.86 0.82 -1.94 1.1 -4.06 1.1 l-1.44 0 l0 5.92 l-1.96 0 l0 -13.64 z M30.672 8.08 l-1.48 0 l0 4.26 l1.56 0 c0.78 0 1.58 0 2.16 -0.36 c0.54 -0.32 0.9 -0.94 0.9 -1.8 c0 -0.48 -0.12 -1.08 -0.6 -1.52 c-0.6 -0.58 -1.14 -0.58 -2.54 -0.58 z M57.144 6.36 l0 1.72 l-4.76 0 l0 11.92 l-1.96 0 l0 -11.92 l-4.68 0 l0 -1.72 l11.4 0 z M70.336 6.36 l0 13.64 l-1.96 0 l0 -13.64 l1.96 0 z M95.408 6.36 l0 13.64 l-1.96 0 l0 -10.62 l-4.2 5.28 l-0.36 0 l-4.24 -5.28 l0 10.62 l-1.96 0 l0 -13.64 l1.84 0 l4.54 5.6 l4.52 -5.6 l1.82 0 z M109.7 6.36 l0 13.64 l-1.96 0 l0 -13.64 l1.96 0 z M128.572 7.14 l0 2.22 c-1.16 -1.12 -2.28 -1.42 -3.2 -1.42 c-1.34 0 -2.16 0.72 -2.16 1.58 c0 1.16 0.8 1.64 3.4 3.16 c0.58 0.34 1.24 0.82 1.76 1.52 c0.42 0.54 0.74 1.28 0.74 2.26 c0 2.14 -1.54 3.72 -3.96 3.72 c-1.34 0 -2.62 -0.46 -3.68 -1.26 l0 -2.48 c0.4 0.5 1.62 2 3.68 2 c1.02 0 2.12 -0.64 2.12 -1.8 c0 -1.14 -1.16 -1.98 -1.8 -2.36 c-2.16 -1.3 -2.78 -1.68 -3.38 -2.44 c-0.42 -0.54 -0.68 -1.18 -0.68 -2.04 c0 -2.06 1.56 -3.62 4.02 -3.62 c1.12 0 2.2 0.34 3.14 0.96 z M148.364 6.36 l0 1.74 l-5.78 0 l0 4.16 l5.58 0 l0 1.74 l-5.58 0 l0 4.24 l5.96 0 l0 1.76 l-7.92 0 l0 -13.64 l7.74 0 z M185.588 6.36 l0 1.72 l-4.76 0 l0 11.92 l-1.96 0 l0 -11.92 l-4.68 0 l0 -1.72 l11.4 0 z M208.38 6.36 l0 13.64 l-1.98 0 l0 -5.94 l-7.64 0 l0 5.94 l-1.96 0 l0 -13.64 l1.96 0 l0 5.9 l7.64 0 l0 -5.9 l1.98 0 z M228.492 6.36 l0 1.74 l-5.78 0 l0 4.16 l5.58 0 l0 1.74 l-5.58 0 l0 4.24 l5.96 0 l0 1.76 l-7.92 0 l0 -13.64 l7.74 0 z M274.796 6.36 l-5.52 13.72 l-0.42 0 l-4.46 -11.12 l-4.5 11.12 l-0.42 0 l-5.5 -13.72 l1.96 0 l3.76 9.4 l3.78 -9.4 l1.86 0 l3.8 9.4 l3.72 -9.4 l1.94 0 z M292.388 6.18 c4.54 0 7.36 3.32 7.36 6.98 c0 3.92 -3 7.02 -7.46 7.02 c-4.28 0 -7.2 -3.16 -7.2 -6.96 c0 -3.62 2.64 -7.04 7.3 -7.04 z M292.468 8.02 c-3.82 0 -5.36 2.92 -5.36 5.2 c0 3.1 2.44 5.14 5.3 5.14 c1.46 0 3.04 -0.6 3.98 -1.62 c0.86 -0.94 1.36 -2.42 1.36 -3.6 c0 -2.26 -1.72 -5.12 -5.28 -5.12 z M311.58 6.36 l3.42 0 c0.64 0 1.48 0.06 2.34 0.44 c1.46 0.62 2.14 1.98 2.14 3.36 c0 1.58 -0.8 2.78 -2.28 3.36 c1.24 0.82 2 2.08 3.04 3.76 c0.58 0.94 0.92 1.4 1.86 2.72 l-2.32 0 c-0.46 -0.66 -2.36 -3.64 -2.8 -4.22 c-1.34 -1.72 -2 -1.72 -2.94 -1.72 l-0.52 0 l0 5.94 l-1.94 0 l0 -13.64 z M314.12 8.02 l-0.6 0 l0 4.3 l0.76 0 c0.3 0 1.36 0 1.9 -0.2 c0.92 -0.36 1.3 -1.22 1.3 -1.96 c0 -0.78 -0.4 -1.52 -1.04 -1.82 c-0.5 -0.24 -1.14 -0.32 -2.32 -0.32 z M343.132 6.36 l-5.92 6.46 l7.38 7.18 l-2.68 0 l-6.96 -6.74 l0 6.74 l-1.98 0 l0 -13.64 l1.98 0 l0 6.24 l5.74 -6.24 l2.44 0 z M362.764 6.36 l0 1.76 l-5.32 0 l0 3.78 l5.32 0 l0 1.76 l-5.32 0 l0 6.34 l-1.96 0 l0 -13.64 l7.28 0 z M376.176 6.36 l0 11.86 l6.14 0 l0 1.78 l-8.12 0 l0 -13.64 l1.98 0 z M400.088 6.18 c4.54 0 7.36 3.32 7.36 6.98 c0 3.92 -3 7.02 -7.46 7.02 c-4.28 0 -7.2 -3.16 -7.2 -6.96 c0 -3.62 2.64 -7.04 7.3 -7.04 z M400.168 8.02 c-3.82 0 -5.36 2.92 -5.36 5.2 c0 3.1 2.44 5.14 5.3 5.14 c1.46 0 3.04 -0.6 3.98 -1.62 c0.86 -0.94 1.36 -2.42 1.36 -3.6 c0 -2.26 -1.72 -5.12 -5.28 -5.12 z M438.54 6.36 l-5.52 13.72 l-0.42 0 l-4.46 -11.12 l-4.5 11.12 l-0.42 0 l-5.5 -13.72 l1.96 0 l3.76 9.4 l3.78 -9.4 l1.86 0 l3.8 9.4 l3.72 -9.4 l1.94 0 z"/></g>
  </g>
</svg>
